# xmcd CD database file generated by OrangeCD 4.3
#
# Track frame offsets:
#	150
#	15980
#	35317
#	47237
#	66192
#	78685
#	106835
#	114487
#	125117
#	137490
#	149047
#	169120
#	184580
#	199997
#
# Disc length: 2766 seconds
#
# Revision: 0
# Processed by: cddbd v1.4PL0 Copyright (c) Steve Scherf et al.
# Submitted via: OrangeCD 4.3
#
DISCID=c80acc0e
DTITLE=Frank Morey - Father John's Medicine
DYEAR=2000
DGENRE=
TTITLE0=Chinese New Year
TTITLE1=Murder in Boston
TTITLE2=Uncle Lefty's Lament
TTITLE3=Shiver Me Timbers
TTITLE4=Moonlight (on a Cloudy Saturday Night)
TTITLE5=Catholic School Girls
TTITLE6=Jesus Says
TTITLE7=My Baby's Havin' My Baby
TTITLE8=I Should Have Heard It Coming, a Long Time Ago
TTITLE9=Dry Town
TTITLE10=Devil's Train
TTITLE11=You Got Heaven (by a Balloon String)
TTITLE12=How Sweet It Is
TTITLE13=Snowing in Lowell
EXTD=
EXTT0=
EXTT1=
EXTT2=
EXTT3=
EXTT4=
EXTT5=
EXTT6=
EXTT7=
EXTT8=
EXTT9=
EXTT10=
EXTT11=
EXTT12=
EXTT13=
PLAYORDER=
